<?xml version="1.0" standalone="no"?>
<!DOCTYPE svg PUBLIC "-//W3C//DTD SVG 20010904//EN"
 "http://www.w3.org/TR/2001/REC-SVG-20010904/DTD/svg10.dtd">
<svg version="1.0" xmlns="http://www.w3.org/2000/svg"
 width="1200.000000pt" height="1200.000000pt" viewBox="0 0 1200.000000 1200.000000"
 preserveAspectRatio="xMidYMid meet">
<metadata>
Created by potrace 1.11, written by Peter Selinger 2001-2013
</metadata>
<g transform="translate(0.000000,1200.000000) scale(0.100000,-0.100000)"
fill="#000000" stroke="none">
<path d="M0 6000 l0 -6000 6000 0 6000 0 0 6000 0 6000 -6000 0 -6000 0 0
-6000z m8880 865 c49 -25 70 -62 70 -120 0 -38 -6 -60 -21 -79 -85 -108 -272
-45 -255 87 12 99 119 157 206 112z m-4323 -35 c61 -37 68 -58 71 -226 l4
-152 85 -4 c78 -3 87 -5 109 -31 25 -30 32 -83 14 -116 -14 -28 -83 -51 -151
-51 l-60 0 3 -321 3 -321 29 -25 c32 -27 31 -27 168 -7 43 6 49 4 77 -24 45
-44 44 -101 -2 -147 -47 -47 -101 -60 -247 -60 -111 0 -130 3 -173 23 -54 27
-98 76 -117 130 -10 27 -15 130 -17 395 l-4 357 -40 0 c-74 0 -119 38 -119
100 0 63 45 100 120 100 l40 0 0 142 c0 122 3 147 20 184 34 70 120 95 187 54z
m-2129 -360 c152 -25 239 -86 283 -196 21 -55 23 -78 29 -349 6 -255 10 -299
29 -362 31 -106 28 -142 -13 -182 -42 -41 -98 -51 -145 -26 -18 9 -53 45 -78
79 l-46 63 -79 -53 c-102 -68 -179 -94 -294 -101 -128 -8 -211 17 -287 87 -74
67 -102 131 -101 230 0 61 5 84 26 125 59 113 126 149 383 204 105 23 204 46
220 51 17 5 49 14 73 20 l44 11 -7 42 c-12 70 -40 124 -77 144 -26 14 -55 18
-133 17 -137 0 -180 -24 -270 -149 -38 -52 -42 -55 -97 -55 -39 0 -54 6 -80
29 -30 26 -33 35 -32 83 1 129 125 243 306 283 76 16 259 19 346 5z m767 -12
c33 -26 55 -75 55 -124 l0 -37 58 54 c107 102 192 135 326 126 140 -9 250 -68
332 -179 134 -183 150 -495 36 -713 -88 -167 -242 -254 -431 -243 -100 6 -168
37 -254 118 l-67 62 0 -233 c0 -129 -5 -250 -10 -270 -15 -55 -51 -82 -112
-86 -65 -5 -97 11 -120 57 -17 32 -18 87 -18 711 0 477 3 686 11 708 24 67
135 95 194 49z m2046 -17 c33 -32 39 -45 39 -80 0 -22 1 -41 3 -41 2 0 25 20
52 45 76 71 160 108 259 113 136 7 238 -35 304 -127 l29 -40 49 50 c72 74 156
112 258 117 168 9 289 -56 350 -188 20 -43 21 -64 24 -442 3 -380 2 -398 -17
-436 -49 -96 -196 -96 -248 0 -16 29 -19 71 -23 388 -5 334 -6 357 -25 390
-73 126 -274 65 -317 -96 -5 -21 -13 -178 -17 -349 -6 -325 -7 -329 -55 -374
-36 -34 -118 -40 -163 -12 -67 42 -67 48 -73 441 -5 378 -6 387 -57 432 -47
43 -167 30 -228 -23 -61 -54 -68 -93 -74 -444 -6 -278 -8 -314 -25 -349 -28
-56 -69 -78 -134 -73 -57 4 -100 34 -122 86 -7 18 -10 173 -8 505 l3 478 37
34 c33 29 45 34 89 34 46 0 55 -4 90 -39z m2260 29 c70 -13 171 -61 227 -107
130 -106 206 -355 139 -454 -41 -62 -78 -68 -436 -69 l-314 0 6 -50 c12 -101
70 -189 152 -233 49 -26 171 -30 225 -8 48 20 113 65 177 122 61 56 88 66 138
49 27 -9 41 -21 51 -46 29 -70 -24 -167 -133 -240 -90 -61 -168 -85 -299 -91
-237 -12 -407 64 -516 231 -105 163 -116 435 -26 626 37 78 121 169 194 211
105 59 280 84 415 59z m1385 -9 c64 -39 64 -40 64 -551 0 -512 0 -510 -65
-550 -65 -40 -155 -16 -192 52 -16 30 -18 72 -21 468 -2 293 0 452 8 486 10
49 44 94 80 107 33 12 96 6 126 -12z m1034 -10 c171 -59 297 -198 341 -381 18
-71 17 -250 0 -320 -47 -187 -168 -323 -341 -381 -89 -30 -250 -37 -344 -15
-194 46 -340 192 -391 391 -18 70 -20 241 -4 317 41 196 192 354 385 403 88
22 270 15 354 -14z m-1640 -830 c137 -72 87 -281 -68 -281 -124 0 -197 113
-140 219 41 76 132 103 208 62z"/>
<path d="M2444 5889 c-12 -4 -86 -22 -165 -40 -174 -38 -212 -52 -244 -91 -32
-38 -34 -108 -5 -155 29 -48 73 -67 156 -68 62 0 80 5 140 35 53 27 74 45 97
81 29 48 51 149 45 212 -3 31 -5 34 -24 26z"/>
<path d="M3456 6254 c-74 -23 -139 -93 -165 -179 -29 -92 -29 -228 0 -320 43
-142 181 -222 311 -183 56 16 122 79 155 146 27 54 28 64 28 197 0 125 -2 146
-23 191 -43 94 -141 165 -226 163 -17 0 -53 -7 -80 -15z"/>
<path d="M7291 6265 c-81 -25 -150 -118 -167 -224 l-7 -41 253 0 252 0 -6 38
c-23 127 -76 199 -167 226 -63 19 -99 19 -158 1z"/>
<path d="M9637 6254 c-65 -20 -128 -84 -158 -160 -20 -51 -23 -76 -23 -184 0
-151 21 -217 90 -286 100 -100 270 -95 363 12 65 73 75 112 76 274 0 162 -10
200 -75 274 -65 73 -175 102 -273 70z"/>
</g>
</svg>
